<svg width="24" height="24" viewBox="0 0 24 24" fill="none" xmlns="http://www.w3.org/2000/svg">
<path d="M18.7076 17.2903C19.0975 17.6802 19.0975 18.3201 18.7076 18.7101C18.5077 18.9 18.2578 19 17.9979 19C17.738 19 17.488 18.9 17.2881 18.7101L12 13.421L6.71189 18.7101C6.51196 18.9 6.26205 19 6.00214 19C5.74223 19 5.49232 18.9 5.2924 18.7101C4.90253 18.3201 4.90253 17.6802 5.2924 17.2903L10.5805 12.0012L5.2924 6.71219C4.90253 6.32226 4.90253 5.68238 5.2924 5.29245C5.68226 4.90252 6.32203 4.90252 6.71189 5.29245L12 10.5815L17.2881 5.29245C17.678 4.90252 18.3177 4.90252 18.7076 5.29245C19.0975 5.68238 19.0975 6.32226 18.7076 6.71219L13.4195 12.0012L18.7076 17.2903Z" fill="currentcolor"/>
</svg>
