<svg xmlns="http://www.w3.org/2000/svg" width="32" height="32" fill="none"><path fill="currentcolor" fill-rule="evenodd" d="M4 18.667c.734 0 1.334.6 1.334 1.333v5.333c0 .36.146.694.386.947.254.24.587.387.947.387h18.667c.36 0 .693-.147.946-.387.254-.24.387-.587.387-.947V20c0-.733.6-1.333 1.333-1.333.734 0 1.334.6 1.334 1.333v5.333c0 1.067-.427 2.08-1.174 2.827a4 4 0 0 1-2.826 1.173H6.667A4 4 0 0 1 3.84 28.16a4 4 0 0 1-1.173-2.827V20c0-.733.6-1.333 1.333-1.333" clip-rule="evenodd"/><path fill="currentcolor" fill-rule="evenodd" d="m23.614 14.28-6.667 6.667c-.12.12-.267.213-.427.28-.066.026-.12.053-.186.053a.9.9 0 0 1-.334.053.9.9 0 0 1-.333-.053c-.067 0-.12-.027-.187-.053a1.3 1.3 0 0 1-.426-.28L8.387 14.28a1.344 1.344 0 0 1 0-1.893c.52-.52 1.373-.52 1.893 0l4.387 4.4V4c0-.733.6-1.333 1.333-1.333.734 0 1.334.6 1.334 1.333v12.787l4.386-4.4c.52-.52 1.374-.52 1.894 0s.52 1.373 0 1.893" clip-rule="evenodd"/></svg>