<svg xmlns="http://www.w3.org/2000/svg" width="143" height="25"><path fill="currentcolor" d="M57.514 11.498c0-3.85-1.82-8.821-9.29-8.821H38.086v17.491h10.138c7.731 0 9.29-5.196 9.29-8.67M45.16 15.797V6.818h1.429c1.713 0 3.486.561 3.486 4.596 0 3.928-1.903 4.4-3.486 4.4zm20.472-.376c0-2.245 1.588-3.474 3.557-3.474.463.014.923.082 1.37.202V6.902a5 5 0 0 0-1.08-.123c-2.217 0-3.64 1.622-4.15 3.271h-.112V7.076h-6.214v13.092h6.629zm10.671-.062h-5.715v4.843h5.757zm11.146 4.81 2.905-11.392h.178l3.06 11.391h7.606l4.434-17.44h-6.337l-2.241 11.144h-.095l-2.87-11.145h-6.782l-2.929 11.145h-.107L82.053 2.727h-6.628l4.298 17.441zm35.519-4.125h-9.195v-2.722h8.661V9.327h-8.661V6.8h9.053V2.677h-16.132v17.491h16.315zm19.992-.561c0-2.75-2.325-3.9-4.151-4.153v-.107a4.37 4.37 0 0 0 2.677-1.34 3.94 3.94 0 0 0 1.076-2.678c0-1.627-1.055-4.55-6.836-4.55h-11.098v17.513h10.743c2.353 0 7.63-.247 7.63-4.669zm-11.627-9.26h1.82c1.951 0 2.508.954 2.508 1.684 0 .5-.237 1.683-2.668 1.683h-1.66zm0 10.399v-3.575h1.637c.593 0 2.804 0 2.804 1.773 0 .629-.38 1.802-2.65 1.802zM12.207 7.705l5.401-2.85 5.43 2.872c.135-.349.206-.717.208-1.088 0-2.245-2.52-4.086-5.614-4.086-3.095 0-5.615 1.83-5.615 4.086.003.362.067.722.19 1.066m15.065 3.075 3.409.78-.717 2.138 5.193-2.632-8.377-2.34zM23.246 25l8.146-9.349-4.345-2.48zm-.551-21.723 1.56 1.555L28.44 0H22.51l2.212 1.29zm3.599 4.125 3.711-.707.765 2.547 1.844-5.533-7.423 2.245zM3.764 15.65 11.912 25 8.122 13.17zm.712-4.091 3.41-.78.485-2.054L0 11.066l5.194 2.632zm.682-4.865 3.705.707 1.109-1.448-7.423-2.245 1.844 5.533zm7.31-3.418-2.045-1.986L12.68 0H6.754l4.185 4.86zm2.217 4.753.742 2.632h.04l1.003-2.806h2.324l1.061 2.806h.036l.593-2.592-2.876-1.594zm10.755 2.694-3.03-1.639-1.09 3.137h-2.704l-1.008-2.879h-.035l-1.026 2.88h-2.715L12.735 9.09 9.71 10.718s-1.103 3.698 3.1 6.734c1.068.86 2.268 1.56 3.558 2.077L16.185 19h2.78l-.183.561a13.4 13.4 0 0 0 3.557-2.082c4.162-3.097 3.119-6.756 3.119-6.756zm-6.166 7.374h-3.409l-.367-1.055h4.15zm.706-1.959h-4.773l-.368-1.055h5.508zm.681-1.958h-6.148l-.367-1.055h6.877z"/></svg>