<svg xmlns="http://www.w3.org/2000/svg" width="28" height="18" fill="none"><g clip-path="url(#a)"><path fill="#000" d="M0 0v18h28V0zm4.11 17.703V.243h22.587v17.46z"/><path fill="#69b42e" d="M4.11 17.703V.243h22.587v17.46z"/><path fill="#fff" d="M.567 16.006c0-1.222.865-1.52 1.534-1.52.604 0 1.507.255 1.507 1.52v1.659H.567zm2.281.501v-.233c0-.26-.078-.57-.764-.57-.704 0-.8.29-.8.57v.233zM1.332 13.12h.517v-.017c-.287-.086-.569-.32-.569-.682 0-.056.009-.12.022-.177h.913a1 1 0 0 0-.035.224c0 .324.208.583.604.583h.825v1.089H1.332zM2.772 12.343V11.4h.839v.942zM2.514 9.955v-.017l-1.938-.48v-1.11l1.938-.466v-.017L.576 7.498V6.465l3.033.726v1.244l-1.982.5v.018l1.982.475v1.27l-3.033.704v-1.084zM.567 3.68h.717v1.48h.439V3.745h.695v1.417h.474V3.649h.717v2.67H.567zM.567 1.476c0-.945.508-1.118.79-1.118.349 0 .631.237.7.613h.017c.044-.302.244-.683.721-.683.77 0 .813.864.813 1.249v1.757H.567zm1.204.722v-.272c0-.398-.209-.436-.296-.436-.126 0-.291.09-.291.41v.298zm1.22 0v-.294c0-.371-.204-.432-.312-.432-.308 0-.308.359-.308.458v.268z"/><path fill="#000" d="m10.634 8.087 4.772-2.625 4.766 2.626s.64 2.266-1.888 4.164c-2.518 1.89-3.227 1.873-5.77 0-2.549-1.879-1.88-4.165-1.88-4.165"/><path fill="#000" d="m15.385 4.458 3.29 1.777a1.9 1.9 0 0 0 .124-.674c0-1.394-1.523-2.526-3.399-2.526-1.878 0-3.4 1.131-3.4 2.526 0 .228.042.45.117.66zM21.125 9.602l2.634 1.533-4.935 5.785zM21.263 8.126l-.296-1.27L26.04 8.3 22.894 9.93l.433-1.322zM20.672 6.036l-.669-.896 4.496-1.39-1.118 3.422-.463-1.575zM19.435 4.444l-.945-.964 1.24-1.226-1.357-.814h3.598zM9.674 9.602 7.04 11.135l4.934 5.785zM9.536 8.126l.296-1.27L4.76 8.3 7.905 9.93l-.433-1.322zM10.127 6.036l.669-.896L6.3 3.75 7.42 7.171l.463-1.575zM11.365 4.444l.944-.964-1.24-1.226 1.357-.814H8.828z"/><path fill="#fff" d="M14 11.398h2.807l.216-.633h-3.238zm.738 2.158c.457.139.877.14 1.332.005l.151-.445h-1.633zm-.336-.982h2.004l.216-.633h-2.436zm-.803-2.352h3.609l.216-.633h-4.041zm3.54-3.805-.391 1.676h-.02l-.623-1.69h-1.358l-.589 1.69h-.022l-.46-1.678-1.16.639.681 1.993h1.597l.601-1.727h.022l.603 1.727h1.588l.68-1.995z"/></g><defs><clipPath id="a"><path fill="#fff" d="M0 0h28v18H0z"/></clipPath></defs></svg>