<svg xmlns="http://www.w3.org/2000/svg" width="24" height="24" fill="none"><path fill="#172037" d="M0 6a6 6 0 0 1 6-6h12a6 6 0 0 1 6 6v12a6 6 0 0 1-6 6H6a6 6 0 0 1-6-6z"/><path fill="#fff" d="m15.414 13.624.253-.058c.856-.193 1.416-.693 1.58-1.571.168-.895.162-1.801.037-2.699-.122-.88-.627-1.472-1.484-1.739-.382-.119-.782-.138-1.18-.138-2.703-.004-5.408-.001-8.112-.005-.148 0-.197.033-.197.191q.008 4.42 0 8.839c0 .145.039.182.182.18q.96-.014 1.917 0c.162.003.208-.037.206-.203-.009-.85.005-1.699-.01-2.548-.004-.218.065-.252.26-.25q1.977.012 3.952 0c.16 0 .25.05.339.183.588.888 1.189 1.769 1.778 2.656.078.117.16.163.3.162.726-.008 1.45-.003 2.175-.005.057 0 .122.022.186-.038zm-.392-2.47q-.048.352-.406.415c-.14.025-.277.033-.418.033-1.79 0-3.58-.002-5.37.005-.17 0-.225-.032-.22-.213q.02-.865-.001-1.728c-.006-.197.066-.223.236-.221.918.007 1.837.004 2.755.004q1.273-.002 2.546 0c.14.001.281.003.417.03.326.064.448.181.473.511.03.387.041.777-.012 1.164"/><path fill="#e62244" d="M18.038 5.18a1.165 1.165 0 0 1 1.17 1.171 1.195 1.195 0 0 1-1.175 1.18c-.645.001-1.196-.555-1.185-1.195a1.174 1.174 0 0 1 1.19-1.155"/></svg>