<svg xmlns="http://www.w3.org/2000/svg" width="24" height="24" fill="none"><g clip-path="url(#a)"><path fill="#07f" d="M0 5a5 5 0 0 1 5-5h14a5 5 0 0 1 5 5v14a5 5 0 0 1-5 5H5a5 5 0 0 1-5-5z"/><path fill="#fff" d="M12.59 16.2c-4.51 0-7.083-3.153-7.19-8.4h2.26c.073 3.851 1.739 5.482 3.058 5.819V7.8h2.127v3.321c1.303-.143 2.671-1.656 3.133-3.321h2.127a6.5 6.5 0 0 1-1.018 2.401 6.3 6.3 0 0 1-1.876 1.786 6.5 6.5 0 0 1 2.138 1.736A6.7 6.7 0 0 1 18.6 16.2h-2.341a4.17 4.17 0 0 0-1.263-2.026 4.04 4.04 0 0 0-2.15-.976V16.2z"/></g><defs><clipPath id="a"><rect width="24" height="24" fill="#fff" rx="5"/></clipPath></defs></svg>