<svg xmlns="http://www.w3.org/2000/svg" width="24" height="24" fill="none"><g clip-path="url(#a)"><path fill="url(#b)" d="M12 24c6.627 0 12-5.373 12-12S18.627 0 12 0 0 5.373 0 12s5.373 12 12 12"/><path fill="#fff" fill-rule="evenodd" d="M5.432 11.873q5.247-2.286 6.998-3.014c3.333-1.387 4.025-1.627 4.477-1.635.099-.002.32.023.465.14a.5.5 0 0 1 .17.324c.016.094.036.306.02.473-.18 1.897-.962 6.502-1.36 8.627-.167.9-.499 1.2-.82 1.23-.696.064-1.225-.46-1.9-.903-1.056-.692-1.653-1.123-2.678-1.799-1.185-.78-.417-1.21.258-1.91.177-.184 3.247-2.977 3.307-3.23.007-.032.014-.15-.056-.213-.07-.062-.174-.04-.249-.024q-.158.037-5.061 3.346-.72.494-1.302.48c-.428-.009-1.252-.242-1.865-.44-.751-.245-1.349-.374-1.297-.79q.04-.323.893-.662" clip-rule="evenodd"/></g><defs><linearGradient id="b" x1="12" x2="12" y1="0" y2="23.822" gradientUnits="userSpaceOnUse"><stop stop-color="#2aabee"/><stop offset="1" stop-color="#229ed9"/></linearGradient><clipPath id="a"><path fill="#fff" d="M0 0h24v24H0z"/></clipPath></defs></svg>