<svg xmlns="http://www.w3.org/2000/svg" width="24" height="24" fill="none"><g clip-path="url(#a)"><path fill="#629fbc" d="M0 0h24v24H0z"/><path fill="#fff" d="m5.058 10.68.127.19c-.253-.009-.518-.033-.57-.141l.004-.016c.142-.037.263-.04.44-.032m1.347.573.06.186-.142.006.034-.19zm.487 1.357c-.126.117-.224.195-.3.37-.104-.085-.158-.255-.192-.445-.036-.206-.05-.436-.077-.608l.009-.088.147-.01.374.706zm-.19-1.74.059-.382.047-.002zm-.101-1.728.67.182-.002.03c-.313.23-.601.331-.756.748l.058-.928zm.626-.96c-.044.432.018.623.093.89.12.086.167.136.128.262-.201-.1-.414-.204-.722-.187l-.024-.026c.087-.34.256-.55.386-.819zm.964-.573.03-.002c-.093.318-.13 1.052-.292 1.343-.382-.18-.375-.963.053-1.272zm-.356 2.357.322.349c-.126.388-.366.68-.467 1.13l-.19-.014c-.163-.453.244-1.191.313-1.521l.298.034.11.28zm.881-2.359c-.032.377.05.572.074.864l-.57.287c.048-.48.145-.797.278-1.135zm.221-.573.042-.003q-.03.093-.064.184l-.125.008.097-.114zm.042 1.758-.569.35c.012-.212.282-.496.508-.575l.051.028zm.38-1.322-.103.584-.106.066-.056.063c-.104-.145-.13-.5-.107-.768zm.38-.438-.003.019-.145.139c-.097.037-.11.035-.232.031l.052-.19zm.379-.768-.17.384-.59-.043.004-.031c.242-.112.455-.244.756-.31m-.307.996.063-.037.054.192-.19-.037zm.497.568c-.226.087-.539.063-.72.163l-.04-.23.119-.154.574.225zm-.486.345-.257.01-.016-.082c.181-.073.485-.08.759-.11l-.288.158zm.675 0c-.217.054-.425.245-.567.394-.028-.174.307-.48.467-.576.071.063.079.056.1.182m.38-2.293-.003.03-.228.137-.338.025.003-.03zm-.307.576-.073-.108c.171-.144.55-.064.76-.043zm1.698-.565c.317.025.607.1.827.237q.03 0 .059-.003l-.036.05-.303.089-.547-.079-1.201-.171.003-.024c.388-.09.813-.131 1.198-.1m1.262-.102-.067.091a.9.9 0 0 1-.499-.192l.57.073zm1.01.71.158-.06.163.14c-.022.16-.176.291-.295.447l-.09.005c-.248-.408-.56-.856-1.109-1.013q-.011-.024-.024-.049l.222-.089c.372.13.682.326 1.028.44.044.107.03.07-.052.179m.459.91-.043-.043-.095.007.158-.15q-.011.093-.02.185m.167 2.117c.257.222.322.542.216.96l-.33-.742.107-.165zm.075-1.725-.003.036-.135.154-.052-.102c.08-.145.023-.067.129-.083zm.158-.002.6.222q-.001.03-.004.06l-.152.102-.602-.222.006-.06zm1.17.768-.333-.221-.046-.09c.144-.088.123-.084.276-.054zm.19-.073-.067.073c-.081-.042-.095-.095-.123-.192l.174.075zm-.142-.55-.048.004.158-.15zm.9.966-.092.04-.508-.284-.158-.215c.263-.194.272.03.52.153zm.19.169-.19-.069.115-.06zm-.23.31c.068.137.068.098.23.078q-.145.126-.291.25l-.278-.528.004-.033c.204-.044.27.03.47.06l.078.123zm.04.344.38-.207c-.076.17-.174.259-.292.384zm.76.732c-.103.089-.17.117-.364.133l.156.017-.003.028-.535.226-.013-.684.369-.435.067-.032zm-.19-1.05c1.048-.291.845.264.378.687zm.949.111c-.386 1.81-.46 1.909-1.826 2.687l-.072-.108.049-.202c.89-.254 1.396-.719 1.343-1.773l.447-.571zm.046 0-.046-.188.142-.004zm-2.323 1.76.013-.2.012-.171.132-.044.018-.002a.98.98 0 0 1-.075.576c-.064-.04-.076-.058-.1-.159m-.76 1.68.004-.034.301-.72.438.03a1 1 0 0 1 .014.096c.02.226-.06.406-.14.642zm.19.77.006-.297.007-.075.32.024.047-.004-.22.364zm-.187-1.242.02-.01.151-.078.017-.002-.023.08-.088.304-.08-.27zm-.296.955-.086-.085c.084.058.03.001.086.085m-.465-.228c.106-.067.222-.046.38-.044l-.047.153c-.13.052-.148.033-.296.018zm.232.719.147.345-.34.23c-.102-.138.009-.527.193-.575m-.374-1.205-.048.004.062-.143zm.546.053-.025-.016q.043-.087.084-.175h.027l.08.184zm1.314-2.494-.01-.065c.05-.061.081-.099.167-.127l.022.113-.11.074zm-.01.468c-.035.045-.095.07-.139.107l-.051-.96zm-.349 1.286c.126-.07.144-.005.159.165l-.38-.002q.004-.03.006-.059zm-.186-.53.086-.073.07.124q-.017.033-.033.068l-.158-.018zm-.035.509-.197.186-.13-.022-.052.005.092-.175zm-.716-.11c-.079-.054-.021-.047-.037-.088zm.599-.856q-.321-.164-.642-.332c.03-.438.084-.942.04-1.395.495.18.938.981.602 1.727m-.452 0c.158.083.149.16.368.226.038.142-.02.198-.111.35l-.232-.01c-.049-.252.003-.398-.025-.566m.044 1.24c-.08-.054-.023-.047-.038-.088zm1.284-1.846.002-.036.171-.125c.03.196.02.523-.026.767-.1-.08-.12-.412-.147-.606m0 .606q.059-.096.115-.192l-.067.188zm1.107-.574.032-.002c.009.736-.446.87-1.044 1.146l-.095.006.373-.77zM17.12 9.051l.018.057-.047.034-.142-.192zm-.171.32.005-.034.042-.003.142.192c-.11-.053-.128-.065-.19-.156m.19.49-.257.24-.55-.795-.712-.617.158-.122c.344.148.947.432 1.069.786.04.115-.097.21-.004.306.11.114.22.033.295.202m-1.602 1.2.058.023.025.553-.088-.02c-.084-.062-.142-.348-.066-.472zm-.42.962.06-.002.064.15-.098.038-.092.004zm-.174 3.068-.082-.28.351-.102.029-.002-.003.026zm-.271-.768c.034-.112.06-.13.122-.192l.053.02.014.05-.116.115zm.089.192-.09-.098q.096-.046.19-.094l-.049.19zm-.2.871-.079-.065.059-.003.292-.227q.015.116.028.23l-.224.154zm.014 2.197c-.456.02-.729-.096-1.103-.129l-.426-.842-.082-.085c.717-.085 1.168-.43 1.699-.669.188.178.614 1.088.239 1.49-.09.138-.19.151-.327.235m-1.961-.946.172-.01c.258.172.434.482.558.767l-.76-.22c.057-.191.08-.386.03-.537m-.545-.724.854-.246 1.345.13.024.068c-.4.18-.856.332-1.315.564-.497.04-.617-.146-.962-.268zm-.054.904.017-.166.328-.025c.026.145.055.226.015.384zm-.38.3.128-.07c.156-.103.273.035.442.089l-.067.066zm.37-.299-.124-.056-.055-.136.19.012zm-.559 0 .19.162c0 .1-.01.09-.032.222zm-.492-.72c.178-.053.416-.042.682-.048l-.248.192-.511-.05zm-.457-9.616c.353-.336 1.237-.236 1.458-.022l.06-.006c-.295.274-.751.306-1.031.577-.22-.146-.402-.24-.487-.55m1.938.55.15.168c-.133.008-.273.016-.412.028-.314.026-.624.073-.841.185l-.028.002-.048-.073a2.7 2.7 0 0 1 1.152-.309zm.74-.96c.245.246.611.39.738.767-.515-.238-1.307-.235-1.708-.615.354.076.655.048.97-.152m.168 1.343.704.096q.029-.001.055-.004l-.564.484c-.088-.178-.11-.419-.194-.576m.905.82q-.073-.01-.146-.021l.19-.031zm-.146-.458.174-.17.016.192-.126-.028q-.03.004-.064.006m.345 6.351-.083.003-.072-.066.055-.073.135-.052zm-.151.35.07-.08.005-.075.111.176-.19.016zm-.076.613-.118-.14.38-.052-.18.186zm.072.576-.38-.046.268-.146zm-.266-.542.076.073-.274.07-.295.015.41-.192zM12.964 6.84c.222.006.456.063.57.192-.154-.015-.428.01-.498-.108zm.193.768c.108.095.146.206.126.384-.167-.058-.123-.24-.126-.384m.187 1.21.005-.033c.378-.082.46.049.288.166-.149-.02-.217-.076-.293-.133m.486 4.93q.04.011.083.021l-.003.027-.187.145.078-.19zm-.105-4.68.141-.117.047.192-.19-.041zm.567 5.131-.458.12-.111.005.003-.019a.8.8 0 0 0 .384-.173l.16.03zm-.327-.45-.052-.107.13-.085.06.031-.075.155zm-1.19 1.327.225-.176.7.06.023.052-.472.272a.7.7 0 0 1-.417-.213zm-.352.016.351.192-.569-.1zm-.028.392-.003.046-.108.06-.079.01.003-.046c.083-.11.069-.073.187-.07m-.895-7.81-.054-.057c.188-.103.486-.152.778-.175.241-.02.478-.023.648-.026l.092.576c-.248-.027-.485-.06-.74-.071a4 4 0 0 0-.661.024zm.28 7.7.046.081-.045.173-.525.04c.057-.172.14-.254.23-.384zm-.648-.666c-.238-.013-.565-.187-.635-.384l.76.193zm.267-.01-.143.01.005-.045.158-.147zm-.522-7.017.23-.073.15.186-.156.006zm-.003 8.239-.036.125-.055.006-.096-.192.19.02zm.105-.828.443.09.024.06-.344.426-.415-.061zm3.313-6.014.086-.125.031-.002.238.06.025.034-.267.098zm.513-.62-.133-.082c.136.05.058-.006.133.082m-.043.877-.09-.077.19-.115zm-.09 1.343.295.073c.079.031.077.04.084.12-.127-.05-.339-.083-.38-.193m.028-.522.041-.053.12.192-.19-.037zm-3.843 6.313.02.05-.256.098-.124.01.003-.026.087-.136c.121-.056.124-.02.27.004m-.55-9.629c.166.123.209.275.184.768-.11-.14-.175-.434-.183-.768m.11-.383-.014.139-.095.007zm-.11.192q-.005.069-.014.138l-.175-.032.144-.103zm0 11.13.094-.977.666-.175-.7 1.116zm.047-2.626.103-.061c.093.11.01.269-.078.384-.074-.069-.082-.111-.062-.267zm-.616-.094.219-.35q.176.101.35.204l-.362.563a.7.7 0 0 1-.207-.417m0 1.503.35-.319.166.015.054.09q-.022.14-.042.28zm-.569-.26.417-.25.318.05.024.043-.334.29a.62.62 0 0 1-.365-.137zm-.055-.372.152-.07.066.014.027.031-.442.146-.127-.044zm-.514-.18.111-.27c.208-.027.257.076.413.14l.045.069-.232.158-.189.012zm-.38.788.276-.487c.184 0 .206.015.282.112.033.056.004.026-.07.039l-.016.167.287.045c-.056.14-.065.121-.15.21-.283.016-.41-.038-.609-.086m-.32-.678.483.144.027.058-.31.373-.449-.147zm-1.858-.52.006-.056.27.207.023.054c-.56.431.296 1.837 1.27.927l.42.167c-.162.287-.438.4-.73.562-.697.058-1.672-1.077-1.259-1.86m.65.197.01.13-.154-.116-.035-.075zm.96.815-.348.268c-.682.072-.959-.4-.981-.98l.133-.16.058-.004c.344.27.648.682 1.114.818zm-.662-2.795c-.062-.045-.066-.067-.098-.143l.13-.492.152-.133.098.143zm-.098.166.3-.706.061-.036c.138.242.337.352.398.682l-.45.47a.9.9 0 0 1-.309-.41m.57.587.38-.37.189.384zm.948-3.878c-.18.383-.419.644-.562 1.014-.063-.337.315-.82.436-1.118l.058-.033zm0-1.055c.282-.088.472-.247.674-.426l.085.257-.24.319zm.949.019-.103.131-.087-.015.002-.02.173-.157zm-.15-.827.03-.001.12.25q-.022.068-.046.133c-.173-.09-.166-.198-.104-.382m-.035 5.563.175.126-.18-.08zm-.003.192.188.082-.003.023-.402.28c-.116-.052-.13-.156-.164-.269q0-.011.003-.023zm-.562-.383.18.072-.096.056-.093.01zm-.01-3.838c.229.064.157.021.167.192-.105-.061-.112-.09-.166-.192m0 3.428.017-.166a.5.5 0 0 1 .174.192zm.38-2.397c-.07.092-.068.066-.19.12l.084-.192zm0-.771-.119.123c-.12-.067-.062-.04-.009-.164l.071-.027zm-.015-.327L8.79 9.91c.134.051.103.02.174.125m-.364 3.52.19.152c-.097-.003-.149-.024-.19-.151m.57-.006-.078.007-.066-.123-.047-.06.103-.01zm-.106-3.554L8.98 9.91c.084.058.028.001.085.085m.012 3.16-.097-.2.042-.165.023-.002.125.384zm-.497 2.233.02.026-.067.253a.52.52 0 0 1-.312-.384zm-.548.279.19.168c-.122-.054-.13-.051-.19-.168m.327-1.701.023.165-.16-.191zm-.187.897-.14-.348c.165.064.295.254.38.384zm.149-3.417.047-.001-.139.192c-.023-.048.005-.093.082-.149zm-.1 1.65-.038.076-.109-.084-.042-.092.148-.016zm-1.328 1.611c.38.247 1.026.476 1.139.96-.441-.21-.87-.586-1.139-.96m.986-.185.153.185-.38-.192zm1.39.569-.289-.29.505-.478.065.527zm.28.32q.026-.062.051-.124l.067-.004.072.192zm.256-.704-.066-.192.138.026zM9.55 8.245q0-.007.002-.016l.187-.046-.13.192zm-1.913 3.968-.175-.384c.223.048.188.207.175.383m-.465.191c-.162-.112-.266-.335-.279-.575.333.078.315.21.38.512zm-.196-1c-.242-.229.11-1.143.265-1.353.082-.103.185-.101.321-.141l.09.023c-.228.403-.382.951-.436 1.512zm-.354 3.111.116.195-.104.241-.06.063c.085.012.104-.06.231-.164.246.398.622.779 1.037.995l-.227.397-.685-.44c-.078-.145.03-.311-.096-.4-.114-.08-.262.036-.378 0l-.322-.294c.095-.21.186-.418.373-.525zM5.964 12.4c.024-.188.065-.383.112-.568l.026-.002.099.57.051.299.45 1.242c-.36-.197-.583-.651-.55-1.263-.087.198-.015.508.013.681-.222-.187-.25-.559-.2-.959m-.329.197a.7.7 0 0 1-.064-.23c-.01-.092-.009-.197.004-.324l.032-.068.147-.145-.083.536zm13.211 1.92q-.19-.074-.38-.147l.369-.046zM8.805 17.638l.1-.053-.115.191zM5.944 11.06l-.162-.016c-.201-.065-.39-.3-.408-.56.308.028.413.174.565.351zm-.023-.016c.022-.414-.295-.672-.706-.661.07-.582.577-.88 1.03-1.075l.086-.007c-.076.73-.018 1.36-.292 1.991-.202.466-.918.457-.879 1.175l.005.06c.102.955 1.143 1.149 1.287 1.989-1.543.782.338 4.072 1.558 2.14.219.031.413.13.685.035.127-.07.152-.127.2-.272l.437.225.023.055c-.4.31-.682.734-1.11 1.024q.018-.06.04-.117l-.113-.02-.06.033q-.03.13-.057.26c.245.25.988-.653 1.206-.83-.123.429-.427.65-.596 1.043l.052.053c.32-.23.714-.877.773-1.37l.48.079c-.601.811-2.147 2.596-2.959 3.072.123-.387.32-.683.42-1.001l-.058.004-.052-.053c-.198.388-.524.66-.582 1.184a.5.5 0 0 0 .13.133c.966-.16 2.579-2.582 3.35-3.244-.209 2.09-1.331 2.415-2.304 3.681.884-.44 1.42-1.563 2.178-2.187-.084.873-.292 2.825-.816 3.171l.086-.006c.588-.364.622-1.863.818-2.629l.083-.805.84-1.175.06-.033c.094.293.519.612.98.527l.33-.139.828.31c.109 1.19.067 1.856-.688 2.762.772-.393 1.055-1.909.798-2.713 1.794.207 1.722-.397 1.381-1.7l.316.005c-.058-.087-.215-.022-.335-.09-.055-.034-.044-.028-.078-.08.427-.48 1.453-.002 1.238.794.295-.66-.357-1.248-.986-1.012.268-.317.594-.578.763-.998q.031-.016.062-.033l1.476 1.547.087-.007.066-.09-1.406-1.666.15-.068a.3.3 0 0 1 .26-.09l-.074-.038c.754.075 1.717.702 2.503.5.073-.126.076-.194.032-.316.838.021 2.346-.259 2.825-.665-1.288.27-2.741.362-3.925.204q-.525-.06-1.049-.123l-.058.005.282-.506c.865-.016 3.132-.038 3.59-.58l-.1-.134-.396-.057c-.034.05-.039.098-.044.146l.312.034c-.68.171-2.572.531-3.19.32-.066-.078-.018-.351-.015-.548a1 1 0 0 0-.004-.106c.888-.265 1.548-.86 1.818-1.761.155-.515.052-1.192.387-1.513.213.019.256.109.413.17-.083-.115-.201-.179-.35-.231l-.278.191c-.254.098-.52-.158-.951.042-.35-.299-.548-.772-1.021-.952l-.05-.082.575-.557c-.188.157-.38.343-.571.528l-.385-.172-.022-.055c.438-.31.826-.424 1.325-.326l.072.137c-.023.04-.044.051-.064.062l-.167-.045c.072.043.147.056.222.07l.064-.062.01-.087c-.11-.096-.143-.166-.357-.173l.102-.15c-.245.167-.74.212-.984.358l.562-.441.067-.09q-.52.308-1.04.618c-.222-.015-.458-.119-.578-.243l-.058.004 1.235-.832-.02-.085-1.405.818-.448-.11.041-.403 3.218-2.52.058-.005-.046-.11c-.12-.058-.609.339-.794.458-.712.456-1.342 1.023-2.043 1.435.29-.367.82-.732.906-1.266l-.142-.018-.22.187.24-.103c-.155.47-.857 1.31-1.253 1.577l-.046-.111c.257-.433.512-1.015.392-1.57l-.217-.127-.231.017c.148.059.249.073.358.145.07.538-.196.902-.34 1.338l-.06.033c-.096-.176-.09-.261-.286-.293l-.017-.113.134-.181.093-.064c.031.059.032.038.043.14a.3.3 0 0 0 .043-.146l-.11-.05-.29.307c-.242-.161-.508-.331-.848-.394.192-.4.779-1.042.476-1.548-.37-.615-1.631.095-2.093.583a1 1 0 0 0-.14.181l.14-.107c.455-.34 1.67-1.15 1.933-.502.276.362-.253 1.059-.397 1.342a13 13 0 0 0-1.536-.086c-.534.01-1.084.08-1.64.263-.27.089-1.413.773-1.457.764l-.522-.504-1.092-.547-.006.057-.063.062 1.398 1.182-.214.13c-.575-.436-.971-.7-1.828-.922l-.144.01c.5.345 1.003.66 1.507.974l.1.136c-.359.151-.51.464-.814.66-.475-.227-.913-.431-1.488-.605l-.04.117 1.076.692.058-.004-.185.127c-.086.288-.255.622-.394 1.028-.537.436-1.232.41-1.34 1.298-.171.047-.293.062-.449.176l-.012.115c.098.137.97.505 1.178.54zm6.366-6.139.08.015-.107-.014-.055.003c.084-.156.331-.195.57-.177l-.017.112-.465.023zm.332.206.224-.073c.097-.16.152-.33.103-.486-.23-.046-.363.01-.579.1l-.117.192-.045.074q.022.026.045.045c.073.06.161.08.323.067.044.076-.007.042-.087.064zm5.519 1.727-.24.045.147-.01.17.073-.257.468c.132-.155.263-.265.319-.501zm-1.38 7.484c-.06-.105-.124-.175-.189-.192q.089.082.19.192M16 16.626l-.19.11.146-.014zm.759-2.303c.193.218.338.634.296.96.218-.473-.031-.767-.296-.96"/></g><defs><clipPath id="a"><rect width="24" height="24" fill="#fff" rx="5"/></clipPath></defs></svg>