<svg xmlns="http://www.w3.org/2000/svg" width="24" height="24" fill="none"><g clip-path="url(#a)"><path fill="#faab62" d="M24 20.488A3.503 3.503 0 0 1 20.506 24H3.494A3.503 3.503 0 0 1 0 20.488V3.512A3.503 3.503 0 0 1 3.494 0h17.012A3.503 3.503 0 0 1 24 3.512z"/><path fill="#f7931e" d="M23.877 20.4a3.467 3.467 0 0 1-3.458 3.477H3.58A3.467 3.467 0 0 1 .123 20.4V3.599A3.467 3.467 0 0 1 3.581.123H20.42A3.467 3.467 0 0 1 23.877 3.6z"/><path fill="#fff" d="M11.987 3.587c-2.379 0-4.307 1.938-4.307 4.329s1.928 4.329 4.307 4.329c2.378 0 4.306-1.938 4.306-4.33 0-2.39-1.928-4.328-4.306-4.328m0 6.118c-.984 0-1.78-.8-1.78-1.79 0-.987.796-1.789 1.78-1.789.983 0 1.78.802 1.78 1.79s-.797 1.79-1.78 1.79M13.507 15.69c1.724-.354 2.758-1.174 2.812-1.218a1.18 1.18 0 0 0 .181-1.655 1.167 1.167 0 0 0-1.646-.182c-.01.009-1.113.858-2.926.86-1.813-.002-2.938-.851-2.949-.86a1.167 1.167 0 0 0-1.646.182 1.18 1.18 0 0 0 .18 1.655c.056.044 1.132.886 2.905 1.231l-2.47 2.595a1.18 1.18 0 0 0 .03 1.664 1.164 1.164 0 0 0 1.655-.03l2.295-2.457 2.527 2.473c.458.46 1.199.458 1.656-.002a1.18 1.18 0 0 0-.001-1.664z"/></g><defs><clipPath id="a"><path fill="#fff" d="M0 0h24v24H0z"/></clipPath></defs></svg>